<svg width="14" height="14" viewBox="0 0 14 14" fill="none" xmlns="http://www.w3.org/2000/svg">
<path fill-rule="evenodd" clip-rule="evenodd" d="M13.53 0.470072C13.6705 0.610698 13.7493 0.801322 13.7493 1.00007C13.7493 1.19882 13.6705 1.38945 13.53 1.53007L2.81 12.2501H10C10.1989 12.2501 10.3897 12.3291 10.5303 12.4697C10.671 12.6104 10.75 12.8012 10.75 13.0001C10.75 13.199 10.671 13.3898 10.5303 13.5304C10.3897 13.6711 10.1989 13.7501 10 13.7501H1C0.801088 13.7501 0.610322 13.6711 0.46967 13.5304C0.329018 13.3898 0.25 13.199 0.25 13.0001V4.00007C0.25 3.80116 0.329018 3.61039 0.46967 3.46974C0.610322 3.32909 0.801088 3.25007 1 3.25007C1.19891 3.25007 1.38968 3.32909 1.53033 3.46974C1.67098 3.61039 1.75 3.80116 1.75 4.00007V11.1901L12.47 0.470072C12.6106 0.329622 12.8012 0.250732 13 0.250732C13.1988 0.250732 13.3894 0.329622 13.53 0.470072Z" fill="black"/>
</svg>
