<svg width="18" height="16" viewBox="0 0 18 16" fill="none" xmlns="http://www.w3.org/2000/svg">
<path d="M17.4498 6.27528L17.4491 6.23676C17.4367 5.4867 17.4062 4.85744 17.3352 4.32594C17.211 3.40466 16.9604 2.73692 16.4455 2.22118C15.9297 1.7063 15.262 1.45576 14.3408 1.33155L17.4498 6.27528ZM17.4498 6.27528L17.4563 6.31325M17.4498 6.27528L17.4563 6.31325M17.4563 6.31325C17.4585 6.32625 17.4588 6.33952 17.457 6.35261L17.452 6.38931M17.4563 6.31325L17.452 6.38931M17.452 6.38931L17.4524 6.42635M17.452 6.38931L17.4524 6.42635M17.4524 6.42635C17.4582 6.89433 17.4582 7.40107 17.4582 7.9535M17.4524 6.42635L17.4582 7.9535M0.547818 6.38832L0.547348 6.42635C0.54156 6.89433 0.541552 7.40107 0.541552 7.9535V8.04683C0.541552 9.59158 0.542583 10.765 0.66457 11.6742L0.547818 6.38832ZM0.547818 6.38832L0.54253 6.35065M0.547818 6.38832L0.54253 6.35065M0.54253 6.35065C0.540677 6.33745 0.540852 6.32405 0.543049 6.3109L0.549155 6.27436M0.54253 6.35065L0.549155 6.27436M0.549155 6.27436L0.549808 6.23731M0.549155 6.27436L0.549808 6.23731M0.549808 6.23731C0.563048 5.48679 0.593534 4.85743 0.664613 4.32581M0.549808 6.23731L0.664613 4.32581M0.79579 6.4585H1.29322H16.7066H17.204L17.2065 6.95592C17.2082 7.28041 17.2082 7.62801 17.2082 7.9989V8.00016C17.2082 9.57516 17.2076 10.7432 17.0871 11.6408C17.0871 11.6408 17.0871 11.6408 17.0871 11.6409L16.5916 11.5743C16.4791 12.4127 16.2674 12.896 15.9149 13.2485L0.79579 6.4585ZM0.79579 6.4585L0.793226 6.95592C0.791553 7.28056 0.791553 7.62833 0.791553 7.99941V8.00016C0.791553 9.57517 0.792159 10.744 0.912665 11.6417L0.91267 11.6417C1.03267 12.5351 1.27062 13.1413 1.73133 13.602C2.19209 14.0628 2.79838 14.3007 3.69253 14.4207L0.79579 6.4585ZM17.2039 6.2085H16.6866H1.31322H0.795893L0.813509 5.69147C0.830443 5.19447 0.859543 4.75355 0.91267 4.3586L17.2039 6.2085ZM17.2039 6.2085L17.1863 5.69147M17.2039 6.2085L17.1863 5.69147M17.1863 5.69147C17.1693 5.1946 17.1402 4.75367 17.0871 4.3595L17.1863 5.69147ZM14.3081 1.57961L14.3081 1.57961C15.2015 1.69962 15.8077 1.93756 16.2684 2.39828C16.7291 2.85898 16.9671 3.46519 17.0871 4.35918L14.3081 1.57961ZM14.3081 1.57961C13.4104 1.4591 12.2416 1.4585 10.6666 1.4585H7.33322C5.75821 1.4585 4.59022 1.4591 3.69255 1.5796L14.3081 1.57961ZM10.7132 1.2085H7.28655C5.7418 1.2085 4.56836 1.20953 3.65919 1.33151L10.7132 1.2085ZM10.7132 1.2085C12.258 1.2085 13.4323 1.20953 14.3406 1.33151L10.7132 1.2085ZM17.4582 7.9535V8.04683M17.4582 7.9535V8.04683M17.4582 8.04683C17.4582 9.59166 17.4572 10.7659 17.3352 11.6742M17.4582 8.04683L17.3352 11.6742M17.3352 11.6742C17.211 12.5955 16.9605 13.2633 16.4455 13.7791M17.3352 11.6742L16.4455 13.7791M16.4455 13.7791C15.9297 14.2941 15.2619 14.5446 14.3406 14.6688M16.4455 13.7791L14.3406 14.6688M14.3406 14.6688C13.4314 14.7908 12.258 14.7918 10.7132 14.7918H7.28655C5.74172 14.7918 4.56749 14.7908 3.65919 14.6688C2.7379 14.5446 2.07014 14.2941 1.55438 13.7792C1.03941 13.2635 0.788841 12.5958 0.664609 11.6745L14.3406 14.6688ZM0.664613 4.32581C0.788837 3.40463 1.03938 2.73693 1.55427 2.22122C2.06999 1.70632 2.73769 1.45578 3.6589 1.33155L0.664613 4.32581ZM1.73133 2.39828C1.27064 2.85897 1.03269 3.46519 0.912683 4.3585L3.69253 1.57961C2.79838 1.6996 2.19209 1.93752 1.73133 2.39828ZM3.87489 11.3335C3.87489 11.3003 3.88806 11.2685 3.9115 11.2451L3.55794 10.8916L3.9115 11.2451C3.93494 11.2217 3.96673 11.2085 3.99989 11.2085H7.33322C7.36637 11.2085 7.39816 11.2217 7.42161 11.2451C7.44505 11.2685 7.45822 11.3003 7.45822 11.3335C7.45822 11.3666 7.44505 11.3984 7.42161 11.4219C7.39817 11.4453 7.36637 11.4585 7.33322 11.4585H3.99989C3.96673 11.4585 3.93494 11.4453 3.9115 11.4219C3.88806 11.3984 3.87489 11.3666 3.87489 11.3335ZM9.29155 11.3335C9.29155 11.3003 9.30472 11.2686 9.32816 11.2451C9.35161 11.2217 9.3834 11.2085 9.41655 11.2085H10.6666C10.6997 11.2085 10.7315 11.2217 10.7549 11.2451L11.1085 10.8916L10.7549 11.2451C10.7784 11.2686 10.7916 11.3003 10.7916 11.3335C10.7916 11.3666 10.7784 11.3984 10.7549 11.4219C10.7315 11.4453 10.6997 11.4585 10.6666 11.4585H9.41655C9.3834 11.4585 9.35161 11.4453 9.32817 11.4219C9.30472 11.3984 9.29155 11.3666 9.29155 11.3335Z" fill="#989EB3" stroke="#989EB3"/>
</svg>
