<svg width="14" height="14" viewBox="0 0 14 14" fill="none" xmlns="http://www.w3.org/2000/svg">
<path fill-rule="evenodd" clip-rule="evenodd" d="M3.99997 1.75C3.80106 1.75 3.61029 1.67098 3.46964 1.53033C3.32899 1.38968 3.24997 1.19891 3.24997 1C3.24997 0.801088 3.32899 0.610322 3.46964 0.46967C3.61029 0.329018 3.80106 0.25 3.99997 0.25H13C13.1989 0.25 13.3896 0.329018 13.5303 0.46967C13.671 0.610322 13.75 0.801088 13.75 1V10C13.75 10.1989 13.671 10.3897 13.5303 10.5303C13.3896 10.671 13.1989 10.75 13 10.75C12.8011 10.75 12.6103 10.671 12.4696 10.5303C12.329 10.3897 12.25 10.1989 12.25 10V2.81L1.52997 13.53C1.38779 13.6625 1.19975 13.7346 1.00545 13.7312C0.811145 13.7277 0.62576 13.649 0.488347 13.5116C0.350934 13.3742 0.272222 13.1888 0.268794 12.9945C0.265365 12.8002 0.337488 12.6122 0.469968 12.47L11.19 1.75H3.99997Z" fill="black"/>
</svg>
